<svg xmlns="http://www.w3.org/2000/svg" xmlns:xlink="http://www.w3.org/1999/xlink" width="2000" zoomAndPan="magnify" viewBox="0 0 1500 1499.999933" height="2000" preserveAspectRatio="xMidYMid meet" version="1.0"><defs><clipPath id="4083df87f0"><path d="M 519 353 L 937 353 L 937 1143 L 519 1143 Z M 519 353 " clip-rule="nonzero"/></clipPath><clipPath id="50c2d5edea"><path d="M 558.835938 330.945312 L 974.550781 372.15625 L 896.191406 1162.53125 L 480.480469 1121.320312 Z M 558.835938 330.945312 " clip-rule="nonzero"/></clipPath><clipPath id="d689919318"><path d="M 558.835938 330.945312 L 974.550781 372.15625 L 896.191406 1162.53125 L 480.480469 1121.320312 Z M 558.835938 330.945312 " clip-rule="nonzero"/></clipPath><clipPath id="a93a29e845"><path d="M 559.054688 330.964844 L 974.492188 372.152344 L 896.144531 1162.40625 L 480.707031 1121.21875 Z M 559.054688 330.964844 " clip-rule="nonzero"/></clipPath><clipPath id="34a4751976"><path d="M 636 1089 L 741 1089 L 741 1194 L 636 1194 Z M 636 1089 " clip-rule="nonzero"/></clipPath><clipPath id="25b76d0b19"><path d="M 641.730469 1084.839844 L 745.402344 1095.117188 L 735.125 1198.789062 L 631.453125 1188.511719 Z M 641.730469 1084.839844 " clip-rule="nonzero"/></clipPath><clipPath id="36b53d572a"><path d="M 693.566406 1089.976562 C 664.9375 1087.140625 639.429688 1108.046875 636.589844 1136.675781 C 633.753906 1165.300781 654.660156 1190.8125 683.289062 1193.648438 C 711.917969 1196.488281 737.425781 1175.582031 740.265625 1146.953125 C 743.101562 1118.324219 722.195312 1092.816406 693.566406 1089.976562 Z M 693.566406 1089.976562 " clip-rule="nonzero"/></clipPath><clipPath id="d612fb9528"><path d="M 0 0 L 105 0 L 105 105 L 0 105 Z M 0 0 " clip-rule="nonzero"/></clipPath><clipPath id="9afb01ac3a"><path d="M 5.730469 -4.160156 L 109.402344 6.117188 L 99.125 109.789062 L -4.546875 99.511719 Z M 5.730469 -4.160156 " clip-rule="nonzero"/></clipPath><clipPath id="b629d33613"><path d="M 57.566406 0.976562 C 28.9375 -1.859375 3.429688 19.046875 0.589844 47.675781 C -2.246094 76.300781 18.660156 101.8125 47.289062 104.648438 C 75.917969 107.488281 101.425781 86.582031 104.265625 57.953125 C 107.101562 29.324219 86.195312 3.816406 57.566406 0.976562 Z M 57.566406 0.976562 " clip-rule="nonzero"/></clipPath><clipPath id="4b94e1c384"><rect x="0" width="105" y="0" height="105"/></clipPath><clipPath id="5ca82d490d"><path d="M 467 673 L 572 673 L 572 779 L 467 779 Z M 467 673 " clip-rule="nonzero"/></clipPath><clipPath id="f260c589a1"><path d="M 472.96875 669.097656 L 576.640625 679.375 L 566.363281 783.046875 L 462.691406 772.769531 Z M 472.96875 669.097656 " clip-rule="nonzero"/></clipPath><clipPath id="c3579aaf69"><path d="M 524.804688 674.234375 C 496.175781 671.398438 470.667969 692.304688 467.828125 720.933594 C 464.992188 749.558594 485.898438 775.070312 514.527344 777.90625 C 543.152344 780.746094 568.664062 759.839844 571.5 731.210938 C 574.339844 702.582031 553.433594 677.074219 524.804688 674.234375 Z M 524.804688 674.234375 " clip-rule="nonzero"/></clipPath><clipPath id="54efab3105"><path d="M 0 0 L 105 0 L 105 106 L 0 106 Z M 0 0 " clip-rule="nonzero"/></clipPath><clipPath id="3f7bbcd05e"><path d="M 5.96875 -3.902344 L 109.640625 6.375 L 99.363281 110.046875 L -4.308594 99.769531 Z M 5.96875 -3.902344 " clip-rule="nonzero"/></clipPath><clipPath id="c60d637ee6"><path d="M 57.804688 1.234375 C 29.175781 -1.601562 3.667969 19.304688 0.828125 47.933594 C -2.007812 76.558594 18.898438 102.070312 47.527344 104.90625 C 76.152344 107.746094 101.664062 86.839844 104.5 58.210938 C 107.339844 29.582031 86.433594 4.074219 57.804688 1.234375 Z M 57.804688 1.234375 " clip-rule="nonzero"/></clipPath><clipPath id="9fd7ae2072"><rect x="0" width="105" y="0" height="106"/></clipPath><clipPath id="122559c6d3"><path d="M 883 715 L 988 715 L 988 820 L 883 820 Z M 883 715 " clip-rule="nonzero"/></clipPath><clipPath id="c8c835ac66"><path d="M 888.839844 710.324219 L 992.511719 720.601562 L 982.234375 824.277344 L 878.5625 813.996094 Z M 888.839844 710.324219 " clip-rule="nonzero"/></clipPath><clipPath id="1bb40d78bd"><path d="M 940.675781 715.464844 C 912.046875 712.625 886.539062 733.53125 883.699219 762.160156 C 880.863281 790.789062 901.769531 816.296875 930.398438 819.136719 C 959.027344 821.972656 984.535156 801.066406 987.371094 772.4375 C 990.210938 743.8125 969.304688 718.300781 940.675781 715.464844 Z M 940.675781 715.464844 " clip-rule="nonzero"/></clipPath><clipPath id="7e143074b6"><path d="M 0 0 L 105 0 L 105 105 L 0 105 Z M 0 0 " clip-rule="nonzero"/></clipPath><clipPath id="5c708983a7"><path d="M 5.839844 -4.675781 L 109.511719 5.601562 L 99.234375 109.277344 L -4.4375 98.996094 Z M 5.839844 -4.675781 " clip-rule="nonzero"/></clipPath><clipPath id="cdfb46322a"><path d="M 57.675781 0.464844 C 29.046875 -2.375 3.539062 18.53125 0.699219 47.160156 C -2.136719 75.789062 18.769531 101.296875 47.398438 104.136719 C 76.027344 106.972656 101.535156 86.066406 104.371094 57.4375 C 107.210938 28.8125 86.304688 3.300781 57.675781 0.464844 Z M 57.675781 0.464844 " clip-rule="nonzero"/></clipPath><clipPath id="88d8cce875"><rect x="0" width="105" y="0" height="105"/></clipPath><clipPath id="1731023291"><path d="M 735 301 L 840 301 L 840 406 L 735 406 Z M 735 301 " clip-rule="nonzero"/></clipPath><clipPath id="43afe1ed68"><path d="M 740.902344 296.648438 L 844.574219 306.925781 L 834.296875 410.597656 L 730.621094 400.320312 Z M 740.902344 296.648438 " clip-rule="nonzero"/></clipPath><clipPath id="74119931c3"><path d="M 792.738281 301.785156 C 764.109375 298.949219 738.601562 319.855469 735.761719 348.484375 C 732.925781 377.113281 753.832031 402.621094 782.460938 405.457031 C 811.085938 408.296875 836.597656 387.390625 839.433594 358.761719 C 842.273438 330.132812 821.367188 304.625 792.738281 301.785156 Z M 792.738281 301.785156 " clip-rule="nonzero"/></clipPath><clipPath id="72159d0d51"><path d="M 0 0 L 105 0 L 105 105 L 0 105 Z M 0 0 " clip-rule="nonzero"/></clipPath><clipPath id="7a20443688"><path d="M 5.902344 -4.351562 L 109.574219 5.925781 L 99.296875 109.597656 L -4.378906 99.320312 Z M 5.902344 -4.351562 " clip-rule="nonzero"/></clipPath><clipPath id="b3f03816d5"><path d="M 57.738281 0.785156 C 29.109375 -2.050781 3.601562 18.855469 0.761719 47.484375 C -2.074219 76.113281 18.832031 101.621094 47.460938 104.457031 C 76.085938 107.296875 101.597656 86.390625 104.433594 57.761719 C 107.273438 29.132812 86.367188 3.625 57.738281 0.785156 Z M 57.738281 0.785156 " clip-rule="nonzero"/></clipPath><clipPath id="45432c09a3"><rect x="0" width="105" y="0" height="105"/></clipPath><clipPath id="6dd52006aa"><path d="M 506 351 L 979 351 L 979 1128 L 506 1128 Z M 506 351 " clip-rule="nonzero"/></clipPath><clipPath id="f44446d0a8"><path d="M 290.429688 489.175781 L 693.402344 238.179688 L 1170.417969 1004.019531 L 767.445312 1255.015625 Z M 290.429688 489.175781 " clip-rule="nonzero"/></clipPath><clipPath id="ed6e865d13"><path d="M 290.429688 489.175781 L 693.402344 238.179688 L 1170.417969 1004.019531 L 767.445312 1255.015625 Z M 290.429688 489.175781 " clip-rule="nonzero"/></clipPath><clipPath id="80c95e9de5"><path d="M 290.644531 489.042969 L 693.40625 238.175781 L 1170.613281 1004.320312 L 767.847656 1255.1875 Z M 290.644531 489.042969 " clip-rule="nonzero"/></clipPath><clipPath id="1e85dcea5c"><path d="M 462.691406 308.890625 L 552.15625 308.890625 L 552.15625 398.355469 L 462.691406 398.355469 Z M 462.691406 308.890625 " clip-rule="nonzero"/></clipPath><clipPath id="37b3de7a4d"><path d="M 507.421875 308.890625 C 482.71875 308.890625 462.691406 328.917969 462.691406 353.621094 C 462.691406 378.328125 482.71875 398.355469 507.421875 398.355469 C 532.128906 398.355469 552.15625 378.328125 552.15625 353.621094 C 552.15625 328.917969 532.128906 308.890625 507.421875 308.890625 Z M 507.421875 308.890625 " clip-rule="nonzero"/></clipPath><clipPath id="d00b85fdb2"><path d="M 0.691406 0.890625 L 90.15625 0.890625 L 90.15625 90.355469 L 0.691406 90.355469 Z M 0.691406 0.890625 " clip-rule="nonzero"/></clipPath><clipPath id="a44b2da48d"><path d="M 45.421875 0.890625 C 20.71875 0.890625 0.691406 20.917969 0.691406 45.621094 C 0.691406 70.328125 20.71875 90.355469 45.421875 90.355469 C 70.128906 90.355469 90.15625 70.328125 90.15625 45.621094 C 90.15625 20.917969 70.128906 0.890625 45.421875 0.890625 Z M 45.421875 0.890625 " clip-rule="nonzero"/></clipPath><clipPath id="b2c6906e24"><rect x="0" width="91" y="0" height="91"/></clipPath><clipPath id="b1bc527f20"><path d="M 921.480469 1072.960938 L 1010.945312 1072.960938 L 1010.945312 1162.429688 L 921.480469 1162.429688 Z M 921.480469 1072.960938 " clip-rule="nonzero"/></clipPath><clipPath id="eb3e25ae73"><path d="M 966.210938 1072.960938 C 941.507812 1072.960938 921.480469 1092.988281 921.480469 1117.695312 C 921.480469 1142.398438 941.507812 1162.429688 966.210938 1162.429688 C 990.917969 1162.429688 1010.945312 1142.398438 1010.945312 1117.695312 C 1010.945312 1092.988281 990.917969 1072.960938 966.210938 1072.960938 Z M 966.210938 1072.960938 " clip-rule="nonzero"/></clipPath><clipPath id="d9744bd6f1"><path d="M 0.480469 0.960938 L 89.945312 0.960938 L 89.945312 90.429688 L 0.480469 90.429688 Z M 0.480469 0.960938 " clip-rule="nonzero"/></clipPath><clipPath id="8cd000a811"><path d="M 45.210938 0.960938 C 20.507812 0.960938 0.480469 20.988281 0.480469 45.695312 C 0.480469 70.398438 20.507812 90.429688 45.210938 90.429688 C 69.917969 90.429688 89.945312 70.398438 89.945312 45.695312 C 89.945312 20.988281 69.917969 0.960938 45.210938 0.960938 Z M 45.210938 0.960938 " clip-rule="nonzero"/></clipPath><clipPath id="8bb5cad183"><rect x="0" width="90" y="0" height="91"/></clipPath><clipPath id="4b6f4d5aec"><path d="M 891.808594 569.191406 L 966.210938 569.191406 L 966.210938 643.59375 L 891.808594 643.59375 Z M 891.808594 569.191406 " clip-rule="nonzero"/></clipPath><clipPath id="99450a86de"><path d="M 929.011719 569.191406 C 908.464844 569.191406 891.808594 585.84375 891.808594 606.390625 C 891.808594 626.9375 908.464844 643.59375 929.011719 643.59375 C 949.554688 643.59375 966.210938 626.9375 966.210938 606.390625 C 966.210938 585.84375 949.554688 569.191406 929.011719 569.191406 Z M 929.011719 569.191406 " clip-rule="nonzero"/></clipPath><clipPath id="e38e20fe62"><path d="M 0.808594 0.191406 L 75.210938 0.191406 L 75.210938 74.59375 L 0.808594 74.59375 Z M 0.808594 0.191406 " clip-rule="nonzero"/></clipPath><clipPath id="2554439b40"><path d="M 38.011719 0.191406 C 17.464844 0.191406 0.808594 16.84375 0.808594 37.390625 C 0.808594 57.9375 17.464844 74.59375 38.011719 74.59375 C 58.554688 74.59375 75.210938 57.9375 75.210938 37.390625 C 75.210938 16.84375 58.554688 0.191406 38.011719 0.191406 Z M 38.011719 0.191406 " clip-rule="nonzero"/></clipPath><clipPath id="85d4e1f890"><rect x="0" width="76" y="0" height="75"/></clipPath><clipPath id="d25e894275"><path d="M 488.847656 835.03125 L 563.25 835.03125 L 563.25 909.4375 L 488.847656 909.4375 Z M 488.847656 835.03125 " clip-rule="nonzero"/></clipPath><clipPath id="9aa912d09f"><path d="M 526.050781 835.03125 C 505.503906 835.03125 488.847656 851.6875 488.847656 872.234375 C 488.847656 892.78125 505.503906 909.4375 526.050781 909.4375 C 546.597656 909.4375 563.25 892.78125 563.25 872.234375 C 563.25 851.6875 546.597656 835.03125 526.050781 835.03125 Z M 526.050781 835.03125 " clip-rule="nonzero"/></clipPath><clipPath id="399fa2bc36"><path d="M 0.847656 0.03125 L 75.25 0.03125 L 75.25 74.4375 L 0.847656 74.4375 Z M 0.847656 0.03125 " clip-rule="nonzero"/></clipPath><clipPath id="082e157e58"><path d="M 38.050781 0.03125 C 17.503906 0.03125 0.847656 16.6875 0.847656 37.234375 C 0.847656 57.78125 17.503906 74.4375 38.050781 74.4375 C 58.597656 74.4375 75.25 57.78125 75.25 37.234375 C 75.25 16.6875 58.597656 0.03125 38.050781 0.03125 Z M 38.050781 0.03125 " clip-rule="nonzero"/></clipPath><clipPath id="3fb3b7774b"><rect x="0" width="76" y="0" height="75"/></clipPath></defs><g clip-path="url(#4083df87f0)"><g clip-path="url(#50c2d5edea)"><g clip-path="url(#d689919318)"><g clip-path="url(#a93a29e845)"><path fill="#0f0b3b" d="M 909.507812 737.554688 C 734.378906 701.546875 808.832031 499.152344 797.492188 378.378906 C 790.066406 327.917969 767.660156 361.929688 760.191406 410.507812 C 746.199219 501.433594 722.050781 675.894531 589.59375 704.285156 C 550.363281 708.167969 515.59375 714.042969 520.226562 730.039062 C 526.101562 764.808594 606.855469 733.96875 672.632812 824.253906 C 685.847656 852.132812 678.050781 972.847656 676.929688 1057.941406 C 675.878906 1137.5625 697.214844 1183.566406 717.476562 1091.453125 C 742.269531 935.414062 756.484375 823.386719 819.394531 800.105469 C 856.527344 790.175781 993.695312 766.105469 909.507812 737.554688 " fill-opacity="1" fill-rule="nonzero"/></g></g></g></g><g clip-path="url(#34a4751976)"><g clip-path="url(#25b76d0b19)"><g clip-path="url(#36b53d572a)"><g transform="matrix(1, 0, 0, 1, 636, 1089)"><g clip-path="url(#4b94e1c384)"><g clip-path="url(#d612fb9528)"><g clip-path="url(#9afb01ac3a)"><g clip-path="url(#b629d33613)"><path fill="#8c52ff" d="M 5.730469 -4.160156 L 109.402344 6.117188 L 99.125 109.789062 L -4.546875 99.511719 Z M 5.730469 -4.160156 " fill-opacity="1" fill-rule="nonzero"/></g></g></g></g></g></g></g></g><g clip-path="url(#5ca82d490d)"><g clip-path="url(#f260c589a1)"><g clip-path="url(#c3579aaf69)"><g transform="matrix(1, 0, 0, 1, 467, 673)"><g clip-path="url(#9fd7ae2072)"><g clip-path="url(#54efab3105)"><g clip-path="url(#3f7bbcd05e)"><g clip-path="url(#c60d637ee6)"><path fill="#ff751f" d="M 5.96875 -3.902344 L 109.640625 6.375 L 99.363281 110.046875 L -4.308594 99.769531 Z M 5.96875 -3.902344 " fill-opacity="1" fill-rule="nonzero"/></g></g></g></g></g></g></g></g><g clip-path="url(#122559c6d3)"><g clip-path="url(#c8c835ac66)"><g clip-path="url(#1bb40d78bd)"><g transform="matrix(1, 0, 0, 1, 883, 715)"><g clip-path="url(#88d8cce875)"><g clip-path="url(#7e143074b6)"><g clip-path="url(#5c708983a7)"><g clip-path="url(#cdfb46322a)"><path fill="#ff3131" d="M 5.839844 -4.675781 L 109.511719 5.601562 L 99.234375 109.277344 L -4.4375 98.996094 Z M 5.839844 -4.675781 " fill-opacity="1" fill-rule="nonzero"/></g></g></g></g></g></g></g></g><g clip-path="url(#1731023291)"><g clip-path="url(#43afe1ed68)"><g clip-path="url(#74119931c3)"><g transform="matrix(1, 0, 0, 1, 735, 301)"><g clip-path="url(#45432c09a3)"><g clip-path="url(#72159d0d51)"><g clip-path="url(#7a20443688)"><g clip-path="url(#b3f03816d5)"><path fill="#e2a9f1" d="M 5.902344 -4.351562 L 109.574219 5.925781 L 99.296875 109.597656 L -4.378906 99.320312 Z M 5.902344 -4.351562 " fill-opacity="1" fill-rule="nonzero"/></g></g></g></g></g></g></g></g><g clip-path="url(#6dd52006aa)"><g clip-path="url(#f44446d0a8)"><g clip-path="url(#ed6e865d13)"><g clip-path="url(#80c95e9de5)"><path fill="#0f0b3b" d="M 888.15625 612.367188 C 705.445312 701.324219 632.214844 467.40625 538.289062 366.472656 C 496.621094 326.167969 500.015625 372.335938 526.957031 421.273438 C 577.382812 512.875 676.558594 686.761719 576.925781 804.152344 C 544.277344 834.84375 517.03125 864.234375 532.292969 875.433594 C 561.683594 902.679688 613.046875 818.925781 734.882812 854.65625 C 766.113281 870.605469 842.761719 984.746094 900.738281 1062.175781 C 954.980469 1134.625 1006.085938 1161.273438 960.492188 1064.257812 C 874.664062 906.515625 809.816406 795.753906 850.339844 731.171875 C 876.90625 696.488281 983.777344 579.726562 888.15625 612.367188 " fill-opacity="1" fill-rule="nonzero"/></g></g></g></g><g clip-path="url(#1e85dcea5c)"><g clip-path="url(#37b3de7a4d)"><g transform="matrix(1, 0, 0, 1, 462, 308)"><g clip-path="url(#b2c6906e24)"><g clip-path="url(#d00b85fdb2)"><g clip-path="url(#a44b2da48d)"><path fill="#38b6ff" d="M 0.691406 0.890625 L 90.15625 0.890625 L 90.15625 90.355469 L 0.691406 90.355469 Z M 0.691406 0.890625 " fill-opacity="1" fill-rule="nonzero"/></g></g></g></g></g></g><g clip-path="url(#b1bc527f20)"><g clip-path="url(#eb3e25ae73)"><g transform="matrix(1, 0, 0, 1, 921, 1072)"><g clip-path="url(#8bb5cad183)"><g clip-path="url(#d9744bd6f1)"><g clip-path="url(#8cd000a811)"><path fill="#004aad" d="M 0.480469 0.960938 L 89.945312 0.960938 L 89.945312 90.429688 L 0.480469 90.429688 Z M 0.480469 0.960938 " fill-opacity="1" fill-rule="nonzero"/></g></g></g></g></g></g><g clip-path="url(#4b6f4d5aec)"><g clip-path="url(#99450a86de)"><g transform="matrix(1, 0, 0, 1, 891, 569)"><g clip-path="url(#85d4e1f890)"><g clip-path="url(#e38e20fe62)"><g clip-path="url(#2554439b40)"><path fill="#7ed957" d="M 0.808594 0.191406 L 75.210938 0.191406 L 75.210938 74.59375 L 0.808594 74.59375 Z M 0.808594 0.191406 " fill-opacity="1" fill-rule="nonzero"/></g></g></g></g></g></g><g clip-path="url(#d25e894275)"><g clip-path="url(#9aa912d09f)"><g transform="matrix(1, 0, 0, 1, 488, 835)"><g clip-path="url(#3fb3b7774b)"><g clip-path="url(#399fa2bc36)"><g clip-path="url(#082e157e58)"><path fill="#0a8c4d" d="M 0.847656 0.03125 L 75.25 0.03125 L 75.25 74.4375 L 0.847656 74.4375 Z M 0.847656 0.03125 " fill-opacity="1" fill-rule="nonzero"/></g></g></g></g></g></g></svg>